{
  "accessors": [
    {
      "bufferView": 2,
      "componentType": 5126,
      "count": 2920,
      "max": [
        1.0794899463653564,
        0.7766209840774536,
        1.8430099487304688
      ],
      "min": [
        -1.0786900520324707,
        -1.6972399950027466,
        -0.7253260016441345
      ],
      "type": "VEC3"
    },
    {
      "bufferView": 2,
      "byteOffset": 35040,
      "componentType": 5126,
      "count": 2920,
      "max": [
        0.999894380569458,
        0.9990609884262085,
        0.9999843239784241
      ],
      "min": [
        -0.9999827146530151,
        -0.9988351464271545,
        -0.9994731545448303
      ],
      "type": "VEC3"
    },
    {
      "bufferView": 1,
      "componentType": 5126,
      "count": 2920,
      "max": [
        0.0,
        1.0
      ],
      "min": [
        0.0,
        1.0
      ],
      "type": "VEC2"
    },
    {
      "bufferView": 0,
      "componentType": 5125,
      "count": 17508,
      "type": "SCALAR"
    },
    {
      "bufferView": 2,
      "byteOffset": 70080,
      "componentType": 5126,
      "count": 1410,
      "max": [
        0.25582292675971985,
        0.9159198999404907,
        0.16319435834884644
      ],
      "min": [
        -0.255760133266449,
        0.6277421712875366,
        -0.09073205292224884
      ],
      "type": "VEC3"
    },
    {
      "bufferView": 2,
      "byteOffset": 87000,
      "componentType": 5126,
      "count": 1410,
      "max": [
        0.9963116645812988,
        0.9988471269607544,
        0.9992840886116028
      ],
      "min": [
        -0.9963510036468506,
        -0.9988553524017334,
        -0.9980747103691101
      ],
      "type": "VEC3"
    },
    {
      "bufferView": 1,
      "byteOffset": 23360,
      "componentType": 5126,
      "count": 1410,
      "max": [
        1.0000001192092896,
        1.0
      ],
      "min": [
        0.0,
        -1.1920928955078125e-07
      ],
      "type": "VEC2"
    },
    {
      "bufferView": 0,
      "byteOffset": 70032,
      "componentType": 5125,
      "count": 8448,
      "type": "SCALAR"
    },
    {
      "bufferView": 2,
      "byteOffset": 103920,
      "componentType": 5126,
      "count": 1408,
      "max": [
        0.6430720686912537,
        0.4942876398563385,
        -0.0007383376359939575
      ],
      "min": [
        -0.6430720686912537,
        0.26436641812324524,
        -0.30413684248924255
      ],
      "type": "VEC3"
    },
    {
      "bufferView": 2,
      "byteOffset": 120816,
      "componentType": 5126,
      "count": 1408,
      "max": [
        0.9963201284408569,
        0.8120028376579285,
        0.9996399879455566
      ],
      "min": [
        -0.9963201284408569,
        -0.9984064698219299,
        -0.9758809804916382
      ],
      "type": "VEC3"
    },
    {
      "bufferView": 1,
      "byteOffset": 34640,
      "componentType": 5126,
      "count": 1408,
      "max": [
        1.0,
        1.0
      ],
      "min": [
        0.0,
        0.0
      ],
      "type": "VEC2"
    },
    {
      "bufferView": 0,
      "byteOffset": 103824,
      "componentType": 5125,
      "count": 2280,
      "type": "SCALAR"
    },
    {
      "bufferView": 2,
      "byteOffset": 137712,
      "componentType": 5126,
      "count": 1408,
      "max": [
        0.5563125014305115,
        0.43979981541633606,
        -0.21237879991531372
      ],
      "min": [
        -0.5563125610351563,
        0.39035287499427795,
        -0.27762773633003235
      ],
      "type": "VEC3"
    },
    {
      "bufferView": 2,
      "byteOffset": 154608,
      "componentType": 5126,
      "count": 1408,
      "max": [
        0.9963175058364868,
        0.8120026588439941,
        0.9996399283409119
      ],
      "min": [
        -0.9963169693946838,
        -0.9984063506126404,
        -0.9758807420730591
      ],
      "type": "VEC3"
    },
    {
      "bufferView": 1,
      "byteOffset": 45904,
      "componentType": 5126,
      "count": 1408,
      "max": [
        1.0,
        1.0
      ],
      "min": [
        0.0,
        0.0
      ],
      "type": "VEC2"
    },
    {
      "bufferView": 0,
      "byteOffset": 112944,
      "componentType": 5125,
      "count": 2280,
      "type": "SCALAR"
    }
  ],
  "asset": {
    "extras": {
      "author": "Darien (https://sketchfab.com/EEVVEENN)",
      "license": "CC-BY-4.0 (http://creativecommons.org/licenses/by/4.0/)",
      "source": "https://sketchfab.com/3d-models/rubber-duck-ccd424db8bae480bbdc1a4a2f812c0e8",
      "title": "Rubber duck"
    },
    "generator": "Sketchfab-15.32.0",
    "version": "2.0"
  },
  "bufferViews": [
    {
      "buffer": 0,
      "byteLength": 122064,
      "name": "floatBufferViews",
      "target": 34963
    },
    {
      "buffer": 0,
      "byteLength": 57168,
      "byteOffset": 122064,
      "byteStride": 8,
      "name": "floatBufferViews",
      "target": 34962
    },
    {
      "buffer": 0,
      "byteLength": 171504,
      "byteOffset": 179232,
      "byteStride": 12,
      "name": "floatBufferViews",
      "target": 34962
    }
  ],
  "buffers": [
    {
      "byteLength": 350736,
      "uri": "scene.bin"
    }
  ],
  "materials": [
    {
      "doubleSided": true,
      "name": "Yellow",
      "pbrMetallicRoughness": {
        "baseColorFactor": [
          0.8,
          0.576569,
          0.0,
          1.0
        ],
        "metallicFactor": 0.0,
        "roughnessFactor": 0.5
      }
    },
    {
      "doubleSided": true,
      "name": "beak",
      "pbrMetallicRoughness": {
        "baseColorFactor": [
          0.8,
          0.13375,
          0.0152893,
          1.0
        ],
        "metallicFactor": 0.0,
        "roughnessFactor": 0.5
      }
    },
    {
      "doubleSided": true,
      "name": "Material.001",
      "pbrMetallicRoughness": {
        "baseColorFactor": [
          0.0,
          0.0,
          0.0,
          1.0
        ],
        "metallicFactor": 0.0,
        "roughnessFactor": 0.5
      }
    },
    {
      "doubleSided": true,
      "name": "glare",
      "pbrMetallicRoughness": {
        "metallicFactor": 0.0,
        "roughnessFactor": 0.5
      }
    }
  ],
  "meshes": [
    {
      "name": "Object_0",
      "primitives": [
        {
          "attributes": {
            "NORMAL": 1,
            "POSITION": 0,
            "TEXCOORD_0": 2
          },
          "indices": 3,
          "material": 0,
          "mode": 4
        }
      ]
    },
    {
      "name": "Object_1",
      "primitives": [
        {
          "attributes": {
            "NORMAL": 5,
            "POSITION": 4,
            "TEXCOORD_0": 6
          },
          "indices": 7,
          "material": 1,
          "mode": 4
        }
      ]
    },
    {
      "name": "Object_2",
      "primitives": [
        {
          "attributes": {
            "NORMAL": 9,
            "POSITION": 8,
            "TEXCOORD_0": 10
          },
          "indices": 11,
          "material": 2,
          "mode": 4
        }
      ]
    },
    {
      "name": "Object_3",
      "primitives": [
        {
          "attributes": {
            "NORMAL": 13,
            "POSITION": 12,
            "TEXCOORD_0": 14
          },
          "indices": 15,
          "material": 3,
          "mode": 4
        }
      ]
    }
  ],
  "nodes": [
    {
      "children": [
        1
      ],
      "matrix": [
        1.0,
        0.0,
        0.0,
        0.0,
        0.0,
        2.220446049250313e-16,
        -1.0,
        0.0,
        0.0,
        1.0,
        2.220446049250313e-16,
        0.0,
        0.0,
        0.0,
        0.0,
        1.0
      ],
      "name": "Sketchfab_model"
    },
    {
      "children": [
        2
      ],
      "name": "root"
    },
    {
      "children": [
        3
      ],
      "matrix": [
        1.0,
        0.0,
        0.0,
        0.0,
        0.0,
        2.220446049250313e-16,
        1.0,
        0.0,
        0.0,
        -1.0,
        2.220446049250313e-16,
        0.0,
        0.0,
        0.0,
        0.0,
        1.0
      ],
      "name": "GLTF_SceneRootNode"
    },
    {
      "children": [
        4,
        5,
        6,
        7
      ],
      "matrix": [
        1.0,
        0.0,
        0.0,
        0.0,
        0.0,
        -1.685873969314855e-07,
        0.9999999999999858,
        0.0,
        0.0,
        -0.9999999999999858,
        -1.685873969314855e-07,
        0.0,
        0.0,
        0.0,
        0.0,
        1.0
      ],
      "name": "Ducky_0"
    },
    {
      "mesh": 0,
      "name": "Object_4"
    },
    {
      "mesh": 1,
      "name": "Object_5"
    },
    {
      "mesh": 2,
      "name": "Object_6"
    },
    {
      "mesh": 3,
      "name": "Object_7"
    }
  ],
  "scene": 0,
  "scenes": [
    {
      "name": "Sketchfab_Scene",
      "nodes": [
        0
      ]
    }
  ]
}
